<?xml version="1.0"?>
<svg width="640" height="480" xmlns="http://www.w3.org/2000/svg" xmlns:svg="http://www.w3.org/2000/svg">
    <!-- Created with SVG-edit - https://github.com/SVG-Edit/svgedit-->

   
    <line fill="none" id="svg_1" stroke="#999999" x1="0" x2="640" y1="20" y2="20"/>
    <line fill="none" id="svg_2" stroke="#999999" x1="0" x2="640" y1="40" y2="40"/>
    <line fill="none" id="svg_3" stroke="#999999" x1="0" x2="640" y1="60" y2="60"/>   
    <line fill="none" id="svg_4" stroke="#999999" x1="0" x2="640" y1="80" y2="80"/>
    <line fill="none" id="svg_6" stroke="#999999" x1="0" x2="640" y1="100" y2="100"/>
    
    <line fill="none" id="svg_6" stroke="#999999" x1="0" x2="640" y1="120" y2="120"/>
    <line fill="none" id="svg_7" stroke="#999999" x1="0" x2="640" y1="140" y2="140"/>
    <line fill="none" id="svg_8" stroke="#999999" x1="0" x2="640" y1="160" y2="160"/>    
    <line fill="none" id="svg_9" stroke="#999999" x1="0" x2="640" y1="180" y2="180"/>
    <line fill="none" id="svg_10" stroke="#999999" x1="0" x2="640" y1="200" y2="200"/>
    
    <line fill="none" id="svg_11" stroke="#999999" x1="0" x2="640" y1="220" y2="220"/>
    <line fill="none" id="svg_12" stroke="#ff0000" x1="0" x2="640" y1="240" y2="240"/>
    <line fill="none" id="svg_13" stroke="#999999" x1="0" x2="640" y1="260" y2="260"/>   
    <line fill="none" id="svg_14" stroke="#999999" x1="0" x2="640" y1="280" y2="280"/>
    <line fill="none" id="svg_15" stroke="#999999" x1="0" x2="640" y1="300" y2="300"/>
    
    <line fill="none" id="svg_16" stroke="#999999" x1="0" x2="640" y1="320" y2="320"/>
    <line fill="none" id="svg_17" stroke="#999999" x1="0" x2="640" y1="340" y2="340"/>
    <line fill="none" id="svg_18" stroke="#999999" x1="0" x2="640" y1="360" y2="360"/>   
    <line fill="none" id="svg_19" stroke="#999999" x1="0" x2="640" y1="380" y2="380"/>
    <line fill="none" id="svg_20" stroke="#999999" x1="0" x2="640" y1="400" y2="400"/>
    
    <line fill="none" id="svg_21" stroke="#999999" x1="0" x2="640" y1="420" y2="420"/>
    <line fill="none" id="svg_22" stroke="#999999" x1="0" x2="640" y1="440" y2="440"/>
    <line fill="none" id="svg_23" stroke="#999999" x1="0" x2="640" y1="460" y2="460"/>   
    <line fill="none" id="svg_24" stroke="#999999" x1="0" x2="640" y1="480" y2="480"/>
    
   
  
    <line fill="none" id="svg_25" stroke="#999999" x1="20" x2="20" y1="0" y2="480"/>
    <line fill="none" id="svg_26" stroke="#999999" x1="40" x2="40" y1="0" y2="480"/>
    <line fill="none" id="svg_27" stroke="#999999" x1="60" x2="60" y1="0" y2="480"/>
    <line fill="none" id="svg_28" stroke="#999999" x1="80" x2="80" y1="0" y2="480"/>
    <line fill="none" id="svg_29" stroke="#999999" x1="100" x2="100" y1="0" y2="480"/>
    
    <line fill="none" id="svg_30" stroke="#999999" x1="120" x2="120" y1="0" y2="480"/>
    <line fill="none" id="svg_31" stroke="#999999" x1="140" x2="140" y1="0" y2="480"/>
    <line fill="none" id="svg_32" stroke="#999999" x1="160" x2="160" y1="0" y2="480"/>
    <line fill="none" id="svg_33" stroke="#999999" x1="180" x2="180" y1="0" y2="480"/>
    <line fill="none" id="svg_34" stroke="#999999" x1="200" x2="200" y1="0" y2="480"/>
    
    <line fill="none" id="svg_35" stroke="#999999" x1="220" x2="220" y1="0" y2="480"/>
    <line fill="none" id="svg_36" stroke="#999999" x1="240" x2="240" y1="0" y2="480"/>
    <line fill="none" id="svg_37" stroke="#999999" x1="260" x2="260" y1="0" y2="480"/>
    <line fill="none" id="svg_38" stroke="#999999" x1="280" x2="280" y1="0" y2="480"/>
    <line fill="none" id="svg_39" stroke="#999999" x1="300" x2="300" y1="0" y2="480"/>
    
    <line fill="none" id="svg_40" stroke="#ff0000" x1="320" x2="320" y1="0" y2="480"/>
    <line fill="none" id="svg_41" stroke="#999999" x1="340" x2="340" y1="0" y2="480"/>
    <line fill="none" id="svg_42" stroke="#999999" x1="360" x2="360" y1="0" y2="480"/>
    <line fill="none" id="svg_43" stroke="#999999" x1="380" x2="380" y1="0" y2="480"/>
    <line fill="none" id="svg_44" stroke="#999999" x1="400" x2="400" y1="0" y2="480"/>
    
    <line fill="none" id="svg_45" stroke="#999999" x1="420" x2="420" y1="0" y2="480"/>
    <line fill="none" id="svg_46" stroke="#999999" x1="440" x2="440" y1="0" y2="480"/>
    <line fill="none" id="svg_47" stroke="#999999" x1="460" x2="460" y1="0" y2="480"/>
    <line fill="none" id="svg_48" stroke="#999999" x1="480" x2="480" y1="0" y2="480"/>
    <line fill="none" id="svg_49" stroke="#999999" x1="500" x2="500" y1="0" y2="480"/>
    
    <line fill="none" id="svg_50" stroke="#999999" x1="520" x2="520" y1="0" y2="480"/>
    <line fill="none" id="svg_51" stroke="#999999" x1="540" x2="540" y1="0" y2="480"/>
    <line fill="none" id="svg_52" stroke="#999999" x1="560" x2="560" y1="0" y2="480"/>
    <line fill="none" id="svg_53" stroke="#999999" x1="580" x2="580" y1="0" y2="480"/>
    <line fill="none" id="svg_54" stroke="#999999" x1="600" x2="600" y1="0" y2="480"/>
    
    <line fill="none" id="svg_55" stroke="#999999" x1="620" x2="620" y1="0" y2="480"/>
    <line fill="none" id="svg_56" stroke="#999999" x1="640" x2="640" y1="0" y2="480"/>
    
    <text id="svg_57" x="20" y="40" fill="red" font-size="20" font-family="sans-serif">Hello World!</text>
     
    <text id="svg_58" x="20" y="100"  font-size="40" font-family="serif">Hello SVG!</text>
     
    <rect id="svg_59" x="340" y="40" width="40" height="40" />
    
    <rect id="svg_60" x="400" y="40" fill="red" width="40" height="40" />
    
    <rect id="svg_61" x="460" y="40" fill="red" stroke="black" width="40" stroke-width="3"  height="40" />
    
    <rect id="svg_62" x="520" y="40" fill="black" stroke="red" width="40" stroke-width="3"  height="40" />
    
    
    <rect id="svg_63" x="340" y="120" fill="none" stroke="blue" stroke-width="3" width="60" height="60"  />
    
    <rect id="svg_64" x="420" y="120" fill="none" stroke="blue" stroke-width="3" width="60" height="60" rx="10" ry="10"  />
    
    <rect id="svg_65" x="500" y="120" fill="white" stroke="blue" width="60" stroke-width="3"  height="60" rx="15" ry="15"  />
    
    <rect id="svg_66" x="580" y="120" fill="#bbbbbb"  width="60"   height="60" rx="20" ry="20" />
    
    
    
    <rect id="svg_67" x="340" y="200" fill="pink" stroke="magenta" stroke-width="5" width="280" height="20"  />
    
    
    
    <circle cx="30" cy="290" r="30"  />
    
    <circle cx="90" cy="290" r="30" fill="red" />
    
    <circle cx="150" cy="290" r="30" fill="red" stroke="black" stroke-width="3"   />
    
    <circle cx="210" cy="290" r="30" fill="white" stroke="red" stroke-width="3"  />
    
    <circle cx="270" cy="290" r="30" fill="none" stroke="black" stroke-width="3"  />
    
    
    <ellipse cx="120" cy="400" rx="100" ry="50" fill="white" stroke="black" stroke-width="1" />
    
    <ellipse cx="120" cy="400" rx="90" ry="40" fill="#eeeeee" stroke="black" stroke-width="1" />
        
    <ellipse cx="120" cy="400" rx="80" ry="30" fill="#dddddd" stroke="black" stroke-width="1" />
    <ellipse cx="120" cy="400" rx="70" ry="20" fill="#cccccc" stroke="black" stroke-width="1" />
    
    <ellipse cx="120" cy="400" rx="60" ry="10" fill="#bbbbbb" stroke="black" stroke-width="1" />
    
    <ellipse cx="120" cy="400" rx="55" ry="5" fill="#aaaaaa" stroke="black" stroke-width="1" />
    
    
    <ellipse cx="270" cy="400" rx="50" ry="80" fill="white" stroke="#999999" stroke-width="1"  />
    
    <ellipse cx="270" cy="400" rx="40" ry="70" fill="#eeeeee"   />
    
    <ellipse cx="270" cy="400" rx="30" ry="60" fill="#dddddd"   />
    <ellipse cx="270" cy="400" rx="20" ry="50" fill="#cccccc"   />
    
    <ellipse cx="270" cy="400" rx="10" ry="40" fill="#bbbbbb"   />
    
    
    
    
    
    <ellipse cx="270" cy="400" rx="50" ry="80" fill="#00ff00" stroke="#009900" stroke-width="1"  />
    
    <ellipse cx="270" cy="400" rx="40" ry="70" fill="#00ee00"   />
    
    <ellipse cx="270" cy="400" rx="30" ry="60" fill="#00dd00"   />
    <ellipse cx="270" cy="400" rx="20" ry="50" fill="#00cc00"   />
    
    <ellipse cx="270" cy="400" rx="10" ry="40" fill="#00bb00"   />
    
    
    <text x="20" y="60" fill="blue" font-size="20" font-family="sans-serif" font-weight="bold">Hello World!</text>
     
    <text  x="20" y="140"  fill="green"  font-size="40" font-family="serif" font-weight="bold" >Hello SVG!</text>
    
    <text  x="20" y="180"  font-size="40" font-family="serif" font-weight="normal" font-style="italic" >Hello SVG!</text>
     
    <text  x="20" y="220"  font-size="40" font-family="serif" font-weight="bold" font-style="italic" >Hello SVG!</text>
    <polyline points="320,240 360,240 360,280 400,280 400,320 440,320 440,360 480,360 480,400 520,400 520,440 560,440 560,480"
            fill="none" stroke="magenta" stroke-width="2" />
</svg>